<?xml version="1.0" encoding="UTF-8"?>
<svg width="24px" height="20px" viewBox="0 0 24 20" version="1.1" xmlns="http://www.w3.org/2000/svg" xmlns:xlink="http://www.w3.org/1999/xlink">
    <!-- Generator: sketchtool 58 (101010) - https://sketch.com -->
    <title>F1F5AC2E-FDFC-4667-AD5D-FA68E99C2FAD@1.5x</title>
    <desc>Created with sketchtool.</desc>
    <g id="Login" stroke="none" stroke-width="1" fill="none" fill-rule="evenodd">
        <g id="CREATE-QUESTION-Copy-87" transform="translate(-16.000000, -30.000000)" fill="#464646" fill-rule="nonzero">
            <g id="SearchMenuBar/Search-Back" transform="translate(0.000000, 20.000000)">
                <g id="Group">
                    <path d="M38.6509271,18.09 L22.6286867,18.0872658 L27.677271,13.0313111 C27.9244904,12.7844699 28.0601002,12.450084 28.0601002,12.0991249 C28.0601002,11.7481659 27.9244904,11.4161197 27.677271,11.1686936 L26.8917102,10.3833252 C26.6446858,10.1364841 26.3155152,10 25.9644909,10 C25.6132714,10 25.2839056,10.1355092 25.0368813,10.3823504 L16.3826393,19.0293958 C16.1346393,19.2772119 15.9990296,19.6073084 15.999858,19.9584624 C15.9990296,20.3115661 16.1346393,20.6418576 16.3826393,20.8892837 L25.0368813,29.5371091 C25.2839056,29.7837553 25.6130763,29.9194594 25.9644909,29.9194594 C26.3155152,29.9194594 26.6446858,29.7835603 26.8917102,29.5371091 L27.677271,28.7517408 C27.9244904,28.5052895 28.0601002,28.176168 28.0601002,27.8252089 C28.0601002,27.4744449 27.9244904,27.1626763 27.677271,26.9160301 L22.5717111,21.8318036 L38.6688783,21.8318036 C39.3921953,21.8318036 39.999858,21.2088514 39.999858,20.4864607 L39.999858,19.3756754 C39.999858,18.6532847 39.374244,18.09 38.6509271,18.09 Z" id="Shape"></path>
                </g>
            </g>
        </g>
    </g>
</svg>