<?xml version="1.0" encoding="UTF-8"?>
<svg width="360px" height="337px" viewBox="0 0 360 337" version="1.1" xmlns="http://www.w3.org/2000/svg" xmlns:xlink="http://www.w3.org/1999/xlink">
    <!-- Generator: sketchtool 57.1 (101010) - https://sketch.com -->
    <title>EF97B407-5E68-45F7-BBAF-7B26DEBC23D6</title>
    <desc>Created with sketchtool.</desc>
    <g id="Login" stroke="none" stroke-width="1" fill="none" fill-rule="evenodd" opacity="0.15">
        <g id="Sign-Up---Home-Menu" transform="translate(0.000000, -303.000000)" fill="#FFFFFF">
            <path d="M340.998945,566 C347.595941,566 353.972332,566.946221 359.999516,568.710636 L359.998302,640.000671 L273.808731,640.000671 C273.605286,637.866168 273.501228,635.702668 273.501228,633.514855 C273.501228,596.199714 303.69992,566 340.998945,566 Z M337.00661,303 C344.73072,303 352.397158,303.242048 360,303.718853 L360,465.894543 C352.462356,465.006679 344.789229,464.549856 337.00661,464.549856 C236.818501,464.549856 154.799774,540.233006 146.345495,636.622676 L146.111879,639.549856 L146.08176,639.549856 C146.08176,639.700761 146.079226,639.85109 146.074196,640.000804 L0.0104793182,640.000804 L0,540.574134 C47.591086,402.421389 180.474363,303 337.00661,303 Z" id="Combined-Shape"></path>
        </g>
    </g>
</svg>