<?xml version="1.0" encoding="UTF-8"?>
<svg width="116px" height="54px" viewBox="0 0 116 54" version="1.1" xmlns="http://www.w3.org/2000/svg" xmlns:xlink="http://www.w3.org/1999/xlink">
    <!-- Generator: sketchtool 57.1 (101010) - https://sketch.com -->
    <title>D05F6C14-92A2-42B0-B9A6-F9DB8AEDD282</title>
    <desc>Created with sketchtool.</desc>
    <g id="Login" stroke="none" stroke-width="1" fill="none" fill-rule="evenodd">
        <g id="Sign-Up---Home-Menu" transform="translate(-122.000000, -85.000000)">
            <g id="Logo-ALL-Small" transform="translate(116.000000, 84.000000)">
                <g id="Group-3">
                    <rect id="Rectangle" x="0" y="0" width="128" height="56"></rect>
                    <g id="Group-4" transform="translate(6.000000, 1.000000)" fill="#464646">
                        <g id="Group-2">
                            <g id="Group">
                                <path d="M34.3136297,26.5962212 C34.3136297,29.6173032 31.8632901,32.0664387 28.8422081,32.0664387 C25.8187179,32.0664387 23.3707865,29.6173032 23.3707865,26.5962212 C23.3707865,23.5715269 25.8187179,21.1235955 28.8422081,21.1235955 C31.8632901,21.1235955 34.3136297,23.5715269 34.3136297,26.5962212" id="Fill-17"></path>
                                <path d="M28.7255718,-3.19744231e-14 C13.2164888,-3.19744231e-14 0.58044979,12.0730741 -8.02913291e-13,27.1826622 L0.00365062761,27.1826622 C0.00365062761,27.7724973 0.484316596,28.2462796 1.07815202,28.261833 L1.07815202,28.2690116 L12.1359031,28.2690116 L12.1359031,28.2594402 C12.1565899,28.2606366 12.1711925,28.2690116 12.1906625,28.2690116 C12.802751,28.2690116 13.2980195,27.7820686 13.2980195,27.1826622 L13.3004533,27.1826622 C13.8687343,19.2850938 20.5481659,13.0481564 28.7255718,13.0481564 C36.9017608,13.0481564 43.5824093,19.2850938 44.1519072,27.1826622 C44.1519072,27.7820686 44.6483926,28.2690116 45.2592643,28.2690116 C45.2787343,28.2690116 45.2945537,28.2606366 45.3128068,28.2594402 L45.3128068,28.2690116 L56.3729916,28.2690116 L56.3729916,28.261833 C56.9680439,28.2462796 57.4462761,27.7724973 57.4462761,27.1826622 L57.4499267,27.1826622 C56.8682601,12.0730741 44.2358716,-3.19744231e-14 28.7255718,-3.19744231e-14" id="Fill-19"></path>
                                <path d="M86.6178147,16.2809964 C86.6178147,15.6810567 86.1304179,15.1912857 85.5292554,15.1912857 L85.5292554,15.1829033 C77.9859823,14.6488253 71.9695664,8.63146674 71.4354658,1.08851322 L71.4342682,1.08851322 C71.4342682,0.488573589 70.948069,-3.19744231e-14 70.3457089,-3.19744231e-14 C70.3265483,-3.19744231e-14 70.3121779,0.0095798743 70.2906223,0.0107773586 L70.2906223,-3.19744231e-14 L59.4086216,-3.19744231e-14 L59.4086216,0.00718490572 C58.8242245,0.0239496857 58.3523957,0.498153463 58.3523957,1.08851322 L58.3488031,1.08851322 C58.9068544,15.849902 70.7684388,27.7097864 85.5292554,28.2690116 L85.5292554,28.2618267 C86.1184426,28.2618267 86.5914689,27.7924128 86.611827,27.206843 L86.6178147,27.206843 L86.6178147,16.3241058 L86.6082344,16.3241058 C86.6082344,16.3085385 86.6178147,16.2965637 86.6178147,16.2809964" id="Fill-21"></path>
                                <path d="M115.785703,16.2809964 C115.785703,15.6810567 115.299483,15.1912857 114.698295,15.1912857 L114.698295,15.1829033 C107.154702,14.6488253 101.140427,8.63146674 100.603908,1.08851322 C100.603908,0.488573589 100.116491,-3.19744231e-14 99.5165003,-3.19744231e-14 C99.4949437,-3.19744231e-14 99.4793751,0.0095798743 99.4602137,0.0107773586 L99.4602137,-3.19744231e-14 L88.5777521,-3.19744231e-14 L88.5777521,0.00718490572 C87.9921326,0.0239496857 87.5202838,0.498153463 87.5202838,1.08851322 L87.5166911,1.08851322 C88.0747661,15.849902 99.9380505,27.7097864 114.698295,28.2690116 L114.698295,28.2618267 C115.288705,28.2618267 115.761751,27.7924128 115.779715,27.206843 L115.785703,27.206843 L115.785703,16.3241058 L115.779715,16.3241058 C115.779715,16.3085385 115.785703,16.2965637 115.785703,16.2809964" id="Fill-23"></path>
                            </g>
                            <path d="M3.64398795,52.9044703 L2.6554593,52.9044703 L0,39.7247432 L0.910996986,39.7247432 C2.03520603,45.4146694 3.02373468,50.3111025 3.178798,51.7045538 L3.19818091,51.7045538 C3.33386131,50.3304561 4.98140906,43.0341901 5.65981107,39.7247432 L6.59019097,39.7247432 C7.26859298,42.9954831 8.8967578,50.4659304 9.01305529,51.6852004 L9.05182113,51.6852004 C9.32318192,49.6724373 10.8738151,43.0341901 11.5328342,39.7247432 L12.4244483,39.7247432 L9.51701107,52.9044703 L8.4897166,52.9044703 C7.85008042,49.7498513 6.33821307,42.5697063 6.1056181,40.9633666 L6.08623519,40.9633666 C5.8342573,42.8019482 4.34177288,49.6724373 3.64398795,52.9044703 Z M20.7806381,45.4727299 L20.7806381,46.2855765 L16.264419,46.2855765 L16.264419,52.1109772 L21.2458281,52.1109772 L21.1101477,52.9044703 L15.4115708,52.9044703 L15.4115708,39.7247432 L21.0132331,39.7247432 L21.0132331,40.5375898 L16.264419,40.5375898 L16.264419,45.4727299 L20.7806381,45.4727299 Z M31.0578902,52.9044703 L31.0578902,40.5375898 L28.0341555,40.5375898 L28.0341555,39.7247432 L34.953856,39.7247432 L34.953856,40.5375898 L31.9301214,40.5375898 L31.9301214,52.9044703 L31.0578902,52.9044703 Z M37.8246811,52.9044703 L37.8246811,39.7247432 L38.6775293,39.7247432 L38.6775293,45.5114369 L43.6589384,45.5114369 L43.6589384,39.7247432 L44.5311695,39.7247432 L44.5311695,52.9044703 L43.6589384,52.9044703 L43.6589384,46.3242835 L38.6775293,46.3242835 L38.6775293,52.9044703 L37.8246811,52.9044703 Z M54.108483,45.4727299 L54.108483,46.2855765 L49.5922639,46.2855765 L49.5922639,52.1109772 L54.5736729,52.1109772 L54.4379926,52.9044703 L48.7394156,52.9044703 L48.7394156,39.7247432 L54.3410779,39.7247432 L54.3410779,40.5375898 L49.5922639,40.5375898 L49.5922639,45.4727299 L54.108483,45.4727299 Z M62.8932506,52.9044703 L62.8932506,39.7247432 L65.9363682,39.7247432 C67.9328084,39.7247432 69.2314636,41.021427 69.2314636,43.2470784 C69.2314636,45.4533765 68.0684888,47.0016556 65.7037732,47.0016556 L63.7460989,47.0016556 L63.7460989,52.9044703 L62.8932506,52.9044703 Z M63.7460989,40.5182363 L63.7460989,46.188809 L65.6262416,46.188809 C67.3707039,46.188809 68.3398496,45.240488 68.3398496,43.2470784 C68.3398496,41.6987993 67.5257672,40.5182363 65.8200707,40.5182363 L63.7460989,40.5182363 Z M77.8977802,45.4727299 L77.8977802,46.2855765 L73.3815611,46.2855765 L73.3815611,52.1109772 L78.3629701,52.1109772 L78.2272898,52.9044703 L72.5287128,52.9044703 L72.5287128,39.7247432 L78.1303751,39.7247432 L78.1303751,40.5375898 L73.3815611,40.5375898 L73.3815611,45.4727299 L77.8977802,45.4727299 Z M84.683954,39.5505618 C87.3200303,39.5505618 88.289176,41.7955667 88.289176,46.188809 C88.289176,50.485284 87.3781791,53.0786517 84.6451881,53.0786517 C81.9897288,53.0786517 81.039966,50.6014049 81.039966,46.2468696 C81.039966,41.9116876 82.164175,39.5505618 84.683954,39.5505618 Z M84.664571,40.3440549 C82.9201087,40.3440549 81.950963,42.20199 81.950963,46.2081625 C81.950963,50.369163 82.8813429,52.2851586 84.683954,52.2851586 C86.505948,52.2851586 87.3975619,50.369163 87.3975619,46.2468696 C87.3975619,41.9116876 86.4284162,40.3440549 84.664571,40.3440549 Z M91.9547006,52.9044703 L91.9547006,39.7247432 L94.9978181,39.7247432 C96.9942584,39.7247432 98.2929134,41.021427 98.2929134,43.2470784 C98.2929134,45.4533765 97.1299383,47.0016556 94.7652232,47.0016556 L92.8075489,47.0016556 L92.8075489,52.9044703 L91.9547006,52.9044703 Z M92.8075489,40.5182363 L92.8075489,46.188809 L94.6876915,46.188809 C96.4321539,46.188809 97.4012993,45.240488 97.4012993,43.2470784 C97.4012993,41.6987993 96.5872172,40.5182363 94.8815207,40.5182363 L92.8075489,40.5182363 Z M101.590163,52.9044703 L101.590163,39.7247432 L102.443011,39.7247432 L102.443011,52.1109772 L107.28874,52.1109772 L107.094911,52.9044703 L101.590163,52.9044703 Z M115.489866,45.4727299 L115.489866,46.2855765 L110.973647,46.2855765 L110.973647,52.1109772 L115.955056,52.1109772 L115.819376,52.9044703 L110.120799,52.9044703 L110.120799,39.7247432 L115.722461,39.7247432 L115.722461,40.5375898 L110.973647,40.5375898 L110.973647,45.4727299 L115.489866,45.4727299 Z" id="WETHEPEOPLE" fill-opacity="0.5" fill-rule="nonzero"></path>
                        </g>
                    </g>
                </g>
            </g>
        </g>
    </g>
</svg>