<?xml version="1.0" encoding="UTF-8"?>
<svg width="16px" height="16px" viewBox="0 0 16 16" version="1.1" xmlns="http://www.w3.org/2000/svg" xmlns:xlink="http://www.w3.org/1999/xlink">
    <!-- Generator: sketchtool 57.1 (101010) - https://sketch.com -->
    <title>3E1FD6B6-C728-4566-879D-D7FFFC517302</title>
    <desc>Created with sketchtool.</desc>
    <g id="Login" stroke="none" stroke-width="1" fill="none" fill-rule="evenodd">
        <g id="Sign-Up---Home-Menu" transform="translate(-87.000000, -252.000000)" fill="#FFFFFF">
            <g id="Sign-Up---Social-Button---Active" transform="translate(60.000000, 244.000000)">
                <g id="Group-5">
                    <g id="Social-Button---Active---Google" transform="translate(27.000000, 8.000000)">
                        <path d="M8,0 C12.418278,0 16,3.581722 16,8 C16,12.418278 12.418278,16 8,16 C3.581722,16 0,12.418278 0,8 C0,3.581722 3.581722,0 8,0 Z M8,2 C5.68109375,2 3.66945312,3.31538281 2.670875,5.24065625 C2.24196875,6.06680469 2,7.00505469 2,8 C2,9.02890625 2.25879687,9.99713281 2.71505469,10.8434141 C3.72846875,12.7228672 5.71505469,14 8,14 C9.42185937,14 10.7280312,13.5054922 11.7562578,12.6790156 L11.7562578,12.6790156 L11.9637566,12.5044086 C12.913189,11.6682186 13.5961906,10.5364484 13.8687969,9.25275781 C13.9548359,8.84857813 14,8.4295625 14,8 C14,7.61691406 13.9640703,7.24207813 13.8951641,6.879125 L13.8951641,6.879125 L8.13190625,6.879125 L8.13190625,9.25275781 L11.3402656,9.25275781 C11.0514688,10.0235234 10.5032188,10.667375 9.80164062,11.0787969 C9.27319531,11.3890156 8.65735156,11.5667188 8,11.5667188 C6.47065625,11.5667188 5.16614844,10.6040703 4.65945312,9.25177344 L4.65945312,9.25177344 L4.57972831,9.014351 C4.48436281,8.692895 4.43329531,8.35235 4.43325781,8 C4.43325781,7.59417969 4.50117969,7.20417969 4.62579687,6.840875 L4.62579687,6.840875 L4.69335663,6.66044807 C5.22313422,5.35444093 6.50403736,4.43328125 8,4.43328125 C8.692625,4.43328125 9.339125,4.63076562 9.88603906,4.972625 L9.88603906,4.972625 L11.8297812,3.3813125 C10.7906562,2.51857812 9.45582031,2 8,2 Z" id="Combined-Shape"></path>
                    </g>
                </g>
            </g>
        </g>
    </g>
</svg>