<?xml version="1.0" encoding="UTF-8"?>
<svg width="16px" height="16px" viewBox="0 0 16 16" version="1.1" xmlns="http://www.w3.org/2000/svg" xmlns:xlink="http://www.w3.org/1999/xlink">
    <!-- Generator: sketchtool 57.1 (101010) - https://sketch.com -->
    <title>84F8658A-C22C-419A-A157-FFB414F349A6</title>
    <desc>Created with sketchtool.</desc>
    <g id="Login" stroke="none" stroke-width="1" fill="none" fill-rule="evenodd">
        <g id="Sign-Up---Home-Menu" transform="translate(-87.000000, -444.000000)" fill="#FFFFFF">
            <g id="Sign-Up---Social-Button---Active-Copy-3" transform="translate(60.000000, 436.000000)">
                <g id="Group-5">
                    <g id="Social-Button---Active---Google" transform="translate(27.000000, 8.000000)">
                        <path d="M8,0 C12.418278,0 16,3.581722 16,8 C16,12.418278 12.418278,16 8,16 C3.581722,16 0,12.418278 0,8 C0,3.581722 3.581722,0 8,0 Z M8,2.0002513 C4.72152458,1.97011707 2.03762996,4.65389928 2,8 C2.03762996,11.3461007 4.72152458,14.0298829 8,13.9997487 C9.205278,14.0039354 10.3843123,13.6405946 11.3859261,12.9563141 C11.5754856,12.8264924 11.6827883,12.6033147 11.6674141,12.3708499 C11.6520399,12.1383852 11.5163246,11.9319504 11.3113909,11.8293074 C11.1064572,11.7266644 10.8634393,11.7434073 10.6738797,11.8732291 C9.8827983,12.4131814 8.95166324,12.6995083 8,12.6954555 C5.42703309,12.726212 3.3149183,10.6260145 3.27790083,8 C3.3149183,5.37398553 5.42703309,3.27378801 8,3.3045445 C10.5729669,3.27378801 12.6850817,5.37398553 12.7220992,8 L12.7220992,8.46485009 C12.704901,9.01175803 12.265543,9.44602825 11.7294258,9.44602825 C11.1933086,9.44602825 10.7539506,9.01175803 10.7367524,8.46485009 L10.7367524,8 C10.7562634,6.86571691 10.1018078,5.83200909 9.08059911,5.38411813 C8.05939046,4.93622718 6.87421032,5.16309084 6.08140418,5.95821511 C5.28859805,6.75333939 5.04559351,7.95883636 5.46646141,9.00882344 C5.88732931,10.0588105 6.88849786,10.7447917 8,10.7447546 C8.7437885,10.7449102 9.4558712,10.4373283 9.97359005,9.89226857 C10.5759027,10.6462079 11.5757188,10.9354753 12.4760712,10.6162878 C13.3764236,10.2971003 13.9852787,9.43753658 14,8.46485009 L14,8 C13.96237,4.65389928 11.2784754,1.97011707 8,2.0002513 Z M8.06219404,6.55832258 C8.83614186,6.56709221 9.45899195,7.21001925 9.45885162,8 C9.44457405,8.80843345 8.79211317,9.45266945 8,9.44046141 C7.22642439,9.41444321 6.61747908,8.75778667 6.63452204,7.96799744 C6.65156501,7.17820822 7.28824623,6.54955296 8.06219404,6.55832258 Z" id="Combined-Shape"></path>
                    </g>
                </g>
            </g>
        </g>
    </g>
</svg>