<?xml version="1.0" encoding="UTF-8"?>
<svg width="16px" height="16px" viewBox="0 0 16 16" version="1.1" xmlns="http://www.w3.org/2000/svg" xmlns:xlink="http://www.w3.org/1999/xlink">
    <!-- Generator: sketchtool 57.1 (101010) - https://sketch.com -->
    <title>88B776BF-419F-450A-B796-062852D7EE04</title>
    <desc>Created with sketchtool.</desc>
    <g id="Login" stroke="none" stroke-width="1" fill="none" fill-rule="evenodd">
        <g id="Sign-Up---Home-Menu" transform="translate(-87.000000, -348.000000)" fill="#FFFFFF">
            <g id="Sign-Up---Social-Button---Active-Copy-2" transform="translate(60.000000, 340.000000)">
                <g id="Group-5">
                    <g id="Social-Button---Active---Google" transform="translate(27.000000, 8.000000)">
                        <path d="M8,0 C12.418278,0 16,3.581722 16,8 C16,11.591222 13.6336973,14.6297644 10.3752235,15.6414955 L10.375,9 L12.125,9 L13,6.8125 L10.375,6.8125 L10.375,5.0625 C10.375,4.5795 10.767,4.1875 11.25,4.1875 L12.125,4.1875 L12.125,2 L10.375,2 C8.925125,2 7.75,3.175125 7.75,4.625 L7.75,6.8125 L6,6.8125 L6,9 L7.75,9 L7.75082067,15.9961932 C3.44783777,15.8645429 0,12.3349143 0,8 C0,3.581722 3.581722,0 8,0 Z" id="Combined-Shape"></path>
                    </g>
                </g>
            </g>
        </g>
    </g>
</svg>