<?xml version="1.0" encoding="UTF-8"?>
<svg width="16px" height="16px" viewBox="0 0 16 16" version="1.1" xmlns="http://www.w3.org/2000/svg" xmlns:xlink="http://www.w3.org/1999/xlink">
    <!-- Generator: sketchtool 57.1 (101010) - https://sketch.com -->
    <title>F2449DAC-ED60-40B6-8C07-3FEA8508A8D4</title>
    <desc>Created with sketchtool.</desc>
    <g id="Login" stroke="none" stroke-width="1" fill="none" fill-rule="evenodd">
        <g id="Sign-Up---Home-Menu" transform="translate(-87.000000, -300.000000)" fill="#FFFFFF" fill-rule="nonzero">
            <g id="Sign-Up---Social-Button---Active-Copy" transform="translate(60.000000, 292.000000)">
                <g id="Group-5">
                    <g id="Social-Button---Active---Google" transform="translate(27.000000, 8.000000)">
                        <g id="Twitter-Icon">
                            <path d="M8,0 C12.418278,0 16,3.581722 16,8 C16,12.418278 12.418278,16 8,16 C3.581722,16 0,12.418278 0,8 C0,3.581722 3.581722,0 8,0 Z M10.0594286,4.10285714 C8.75014138,4.10852222 7.6919297,5.17184357 7.69257143,6.48114286 L7.69257143,6.51885714 L7.57828571,6.51428571 C7.33257143,6.51314286 6.64114286,6.31542857 6.41257143,6.24342857 C5.542919,5.94319543 4.75223162,5.45057845 4.09942857,4.80228571 L3.85142857,4.56 C3.80914286,4.51771429 3.73714286,4.53714286 3.72114286,4.59657143 L3.63428571,4.93371429 C3.58857143,5.10971429 3.56571429,5.29371429 3.56571429,5.47885714 C3.56571429,6.22514286 3.936,6.90285714 4.56,7.304 C4.39727743,7.30448021 4.23504904,7.28607131 4.07657143,7.24914286 L3.784,7.18057143 C3.72914286,7.16914286 3.68114286,7.21485714 3.68914286,7.26971429 L3.73828571,7.56685714 C3.84914286,8.232 4.28,8.78971429 4.87542857,9.064 C4.94971429,9.09828571 4.93028571,9.21028571 4.848,9.21257143 L4.84571429,9.21257143 L4.52114286,9.22857143 C4.464,9.23085714 4.42971429,9.29485714 4.45714286,9.34628571 L4.61714286,9.632 C4.93290794,10.1877451 5.48665932,10.5674483 6.11885714,10.6617143 C6.18742857,10.6731429 6.21028571,10.7611429 6.15314286,10.8034286 C5.616,11.2034286 4.98971429,11.4742857 4.32685714,11.6034286 L3.61142857,11.7177143 C3.53371429,11.7314286 3.52342857,11.84 3.59771429,11.8685714 L4.27657143,12.128 C4.96228571,12.3908571 5.68228571,12.5222857 6.41371429,12.5222857 C9.71428571,12.5222857 12.4102857,9.82514286 12.4251429,6.50628571 L12.4251429,6.45257143 L12.4251429,6.42285714 L12.4251429,6.41142857 C12.6537143,6.248 12.8822857,6.064 13.0651429,5.86285714 L13.5451429,5.36685714 C13.6,5.30971429 13.5474286,5.21828571 13.4708571,5.23542857 L12.8011429,5.39542857 L12.5908571,5.44114286 C12.5108571,5.456 12.4765714,5.35428571 12.5268571,5.304 C12.6057385,5.23852298 12.6798326,5.16748436 12.7485714,5.09142857 L13.2674286,4.52 C13.3211429,4.46057143 13.2617143,4.36685714 13.1851429,4.39428571 L12.456,4.64 C12.2388571,4.71314286 12.0102857,4.76914286 11.7817143,4.80342857 C11.7588571,4.80685714 11.7325714,4.79885714 11.7154286,4.78057143 C11.2754877,4.34572993 10.6814304,4.10251977 10.0628571,4.104 L10.0594286,4.10285714 Z" id="Shape"></path>
                        </g>
                    </g>
                </g>
            </g>
        </g>
    </g>
</svg>