<?xml version="1.0" encoding="UTF-8"?>
<svg width="128px" height="128px" viewBox="0 0 128 128" version="1.1" xmlns="http://www.w3.org/2000/svg" xmlns:xlink="http://www.w3.org/1999/xlink">
    <!-- Generator: sketchtool 57.1 (101010) - https://sketch.com -->
    <title>4CD9953F-503C-4C48-9547-15D2C48D2B5C</title>
    <desc>Created with sketchtool.</desc>
    <g id="Login" stroke="none" stroke-width="1" fill="none" fill-rule="evenodd" opacity="0.8">
        <g id="Sign-Up---Twitter-(Email-Filled---Loader-to-finishing-signup)" transform="translate(-116.000000, -256.000000)" fill="#EBEBEB">
            <g id="Group-7">
                <g id="Group" transform="translate(116.000000, 256.000000)">
                    <path d="M27.0358383,64 L27.0358383,64.0243995 C27.0846395,64.0216885 27.1171736,64 27.1605524,64 C28.5242735,64 29.6250106,65.1061126 29.6250106,66.4643538 L29.6250106,66.4643538 C30.8369059,83.5413225 44.4578497,97.1644004 61.5355418,98.3735333 L61.5355418,98.3735333 L61.5355418,98.3925107 C62.8965517,98.3925107 64,99.5013343 64,100.859576 L64,100.859576 L63.9783106,100.957174 L64,100.957174 L64,125.59529 L63.9864441,125.59529 C63.9403541,126.920998 62.86944,127.983734 61.5355418,127.983734 L61.5355418,127.983734 L61.5355418,128 C28.1175972,126.733935 1.26340761,99.8835938 0,66.4643538 L0,66.4643538 C0.00813352537,65.1278011 1.07633652,64.0542212 2.39938999,64.0162664 L2.39938999,64.0162664 L2.39938999,64 L27.0358383,64 Z M66.4644582,-1.42108547e-14 C99.8824028,1.26606515 126.736592,28.1164062 128,61.5356462 L128,61.5356462 C127.991866,62.8721989 126.923663,63.9457788 125.60061,63.9837336 L125.60061,63.9837336 L125.60061,64 L100.964162,64 L100.964162,63.9756005 L100.964162,63.9756005 L100.839448,64 C99.4757265,64 98.3749894,62.8938874 98.3749894,61.5356462 L98.3749894,61.5356462 C97.1630941,44.4586775 83.5421503,30.8355996 66.4644582,29.6264667 L66.4644582,29.6264667 L66.4644582,29.6074893 C65.1034483,29.6074893 64,28.4986657 64,27.1404245 C64,27.1051807 64.0216894,27.0780701 64.0216894,27.0428263 L64.0216894,27.0428263 L64,27.0428263 L64,2.40471047 L64.0135559,2.40471047 C64.0596459,1.07900199 65.13056,0.0162663617 66.4644582,0.0162663617 L66.4644582,0.0162663617 Z" id="Combined-Shape"></path>
                </g>
            </g>
        </g>
    </g>
</svg>