<?xml version="1.0" encoding="UTF-8"?>
<svg width="20px" height="15px" viewBox="0 0 20 15" version="1.1" xmlns="http://www.w3.org/2000/svg" xmlns:xlink="http://www.w3.org/1999/xlink">
    <!-- Generator: sketchtool 58 (101010) - https://sketch.com -->
    <title>C829DA86-3AC3-4934-8AAF-12A195DDFCFD</title>
    <desc>Created with sketchtool.</desc>
    <g id="Login" stroke="none" stroke-width="1" fill="none" fill-rule="evenodd">
        <g id="CREATE-QUESTION-Copy-112" transform="translate(-66.000000, -301.000000)" fill="#464646" fill-rule="nonzero">
            <g id="Group-7" transform="translate(44.000000, 244.000000)">
                <g id="Group-4" transform="translate(16.000000, 48.000000)">
                    <g id="SignUp-/-Checkbox-Checked-Copy">
                        <g id="Group-3">
                            <path d="M25.638716,11.0706384 L23.883909,9.35348696 C23.6432942,9.11785847 23.3506607,9 23.0066863,9 C22.6623956,9 22.3697621,9.11785847 22.1291473,9.35348696 L13.6645131,17.6489985 L9.87094292,13.9241844 C9.63005693,13.6884674 9.33760417,13.5707416 8.99362982,13.5707416 C8.64942951,13.5707416 8.35697674,13.6884674 8.11609076,13.9241844 L6.36128379,15.64138 C6.1203978,15.8770528 6,16.1633184 6,16.5000884 C6,16.8365932 6.1203978,17.1231241 6.36128379,17.3587526 L11.032167,21.9293173 L12.7871096,23.6464688 C13.02786,23.8822742 13.3204032,24 13.6645131,24 C14.0084874,24 14.3010306,23.8819646 14.5419166,23.6464688 L16.2968139,21.9293173 L25.638716,12.7879226 C25.879376,12.5522056 26,12.2659842 26,11.9292142 C26,11.592621 25.879376,11.3063554 25.638716,11.0706384 Z" id="Shape"></path>
                        </g>
                    </g>
                </g>
            </g>
        </g>
    </g>
</svg>