<?xml version="1.0" encoding="UTF-8"?>
<svg width="30px" height="32px" viewBox="0 0 30 32" version="1.1" xmlns="http://www.w3.org/2000/svg" xmlns:xlink="http://www.w3.org/1999/xlink">
    <!-- Generator: sketchtool 58 (101010) - https://sketch.com -->
    <title>59C4B1B2-CEC1-48B7-9276-71FE46BD1008</title>
    <desc>Created with sketchtool.</desc>
    <g id="Login" stroke="none" stroke-width="1" fill="none" fill-rule="evenodd">
        <g id="CREATE-QUESTION-Copy-112" transform="translate(-173.000000, -340.000000)" fill-rule="nonzero">
            <g id="Group-7" transform="translate(44.000000, 244.000000)">
                <g id="Group-5" transform="translate(0.000000, 96.000000)">
                    <g id="Group-6" transform="translate(129.000000, 0.000000)">
                        <g id="g840" transform="translate(3.281596, 0.000000)">
                            <path d="M22.7106732,11.6013086 C22.710145,11.4396423 22.7063805,11.2788455 22.6991545,11.1188202 L22.6991545,1.99540098 L20.1769086,4.51764748 C18.1125906,1.99083837 14.9722296,0.376933984 11.4547571,0.376933984 C7.79422309,0.376933984 4.54220553,2.12418211 2.48647675,4.83007285 L6.62074927,9.00782699 C7.02590829,8.25851577 7.60148033,7.61492943 8.29547252,7.12884358 C9.01724683,6.56559285 10.0399311,6.10506016 11.4546224,6.10506016 C11.6255278,6.10506016 11.75744,6.12502764 11.8543616,6.16265366 C13.6071662,6.30099902 15.1265093,7.26832846 16.0211102,8.67233886 L13.0946699,11.5987798 C16.8013698,11.5842302 20.9887857,11.5756969 22.710348,11.600666" id="path3645" fill="#1C3AA9"></path>
                            <path d="M11.389001,0.377336585 C11.227334,0.377865366 11.0665366,0.381629268 10.9065125,0.388855285 L1.78309268,0.388855285 L4.30533984,2.91110244 C1.77853008,4.97541984 0.164626146,8.11578016 0.164626146,11.6332533 C0.164626146,15.2937873 1.91190179,18.5458049 4.6177652,20.601533 L8.7955187,16.4672559 C8.04620748,16.0620969 7.40262114,15.4865242 6.91653659,14.792532 C6.35331122,14.0707577 5.89275187,13.0480748 5.89275187,11.6333821 C5.89275187,11.4624767 5.91271935,11.3305659 5.95034537,11.2336442 C6.08869008,9.48083967 7.05602081,7.96149463 8.46002992,7.06689431 L11.3864715,9.99333528 C11.371922,6.2866361 11.3633626,2.09921951 11.3883577,0.377656585" id="path3647" fill="#4285F4"></path>
                            <path d="M0.165028748,11.6329808 C0.165570407,11.7946478 0.169295415,11.9554446 0.176542894,12.1154693 L0.176542894,21.2388885 L2.69878959,18.716642 C4.76310764,21.2434511 7.90346797,22.8573554 11.4209411,22.8573554 C15.0814745,22.8573554 18.333492,21.1101067 20.3892215,18.4042166 L16.2549496,14.2264618 C15.8497886,14.975775 15.2742179,15.61936 14.5802244,16.1054452 C13.8584514,16.6686979 12.8357672,17.1292299 11.4210751,17.1292299 C11.2501691,17.1292299 11.1182589,17.1092624 11.0213372,17.0716364 C9.26853268,16.9332917 7.74918764,15.965961 6.85458862,14.5619506 L9.78102829,11.6355109 C6.07432911,11.6500605 1.88691252,11.6585938 0.165350699,11.6336247" id="path3649" fill="#FFFFFF"></path>
                        </g>
                        <path d="M6.37348549,26.9091479 C6.13303682,26.9091479 5.91746859,26.9547511 5.72675712,27.04595 C5.53605787,27.1350825 5.3743816,27.2625642 5.24171686,27.4283856 C5.11112783,27.5942089 5.0105989,27.7952852 4.94011381,28.0315669 C4.87171035,28.2657922 4.83750843,28.5280003 4.83750843,28.8181869 L4.83750843,29.6545667 C4.83750843,29.946825 4.87170776,30.2100836 4.94011381,30.4443169 C5.01058891,30.6785444 5.11008516,30.8785614 5.23860958,31.0443917 C5.36713362,31.2102223 5.52258164,31.3376856 5.70498396,31.426827 C5.88738591,31.5159683 6.0925974,31.5605247 6.32061806,31.5605247 C6.55484552,31.5605247 6.76006367,31.5263254 6.93625106,31.4579186 C7.11451305,31.3895174 7.2637465,31.2910572 7.38398287,31.1625546 C7.50420517,31.0319663 7.59644641,30.8744392 7.66070473,30.6899423 C7.72703507,30.5054609 7.76641998,30.296115 7.77885576,30.0618795 L7.20363776,30.0618795 C7.18912626,30.2422153 7.16425211,30.3966492 7.1290153,30.5251473 C7.09377627,30.6515912 7.04195742,30.7562671 6.97355322,30.839178 C6.90722326,30.9200206 6.82016501,30.9801312 6.71236665,31.0195157 C6.60665363,31.0568253 6.4760609,31.0754771 6.32061066,31.0754771 C6.15478408,31.0754771 6.01382943,31.0392057 5.89775967,30.9666542 C5.78168287,30.8920369 5.68736962,30.7904675 5.61482287,30.6619472 C5.54434777,30.5334309 5.49252745,30.3831548 5.45936117,30.2111096 C5.42826987,30.0390625 5.41272569,29.8535548 5.41272569,29.6545578 L5.41272569,28.8119635 C5.41272569,28.598468 5.43137752,28.4046474 5.468693,28.2305309 C5.50807865,28.056417 5.56715102,27.9082148 5.64591899,27.7859068 C5.72468659,27.6636088 5.82418061,27.5692959 5.94441475,27.5029707 C6.06463669,27.4345687 6.20767223,27.4003676 6.37347994,27.4003676 C6.51235888,27.4003676 6.63153555,27.4210803 6.73103402,27.4625546 C6.83053026,27.5019343 6.91344115,27.5641218 6.97976889,27.6491043 C7.04609886,27.732017 7.09688355,27.8377304 7.1321211,27.9662419 C7.16736013,28.0947593 7.19119643,28.248143 7.20363221,28.4264021 L7.77885576,28.4264021 C7.7684857,28.1818109 7.73013791,27.9652063 7.66380831,27.7765664 C7.59747834,27.5879381 7.50523711,27.4293687 7.38708645,27.300848 C7.26893542,27.1723347 7.12486424,27.0749101 6.95491398,27.0085897 C6.78701649,26.9422576 6.59321699,26.9090935 6.37348216,26.9090935 L6.37348549,26.9091479 Z M20.4148493,26.9091479 C20.1744006,26.9091479 19.958832,26.9547511 19.7681217,27.04595 C19.5774217,27.1350825 19.4157454,27.2625642 19.2830803,27.4283856 C19.1524946,27.5942089 19.0519605,27.7952852 18.9814773,28.0315669 C18.913076,28.2657922 18.8788774,28.5280003 18.8788774,28.8181869 L18.8788774,29.6545667 C18.8788774,29.946825 18.9130768,30.2100836 18.9814773,30.4443169 C19.0519535,30.6785444 19.1514508,30.8785614 19.2799734,31.0443917 C19.4084912,31.2102179 19.5639462,31.3376856 19.7463482,31.426827 C19.9287549,31.5159591 20.1339609,31.5605247 20.3619819,31.5605247 C20.5962064,31.5605247 20.8014031,31.5263254 20.9776156,31.4579186 C21.1558747,31.3895174 21.3051107,31.2910572 21.4253471,31.1625546 C21.5455708,31.0319663 21.6378099,30.8744392 21.7020693,30.6899423 C21.7684011,30.5054609 21.8077857,30.296115 21.8202192,30.0618795 L21.2450253,30.0618795 C21.2305249,30.2422153 21.2056396,30.3966492 21.1704028,30.5251473 C21.1351638,30.6515912 21.0833446,30.7562671 21.0149433,30.839178 C20.9486126,30.9200206 20.8615547,30.9801312 20.7537564,31.0195157 C20.6480445,31.0568253 20.5174503,31.0754771 20.362,31.0754771 C20.1961742,31.0754771 20.0552184,31.0392057 19.9391494,30.9666542 C19.8230722,30.8920343 19.7287571,30.7904646 19.6562126,30.6619442 C19.5857379,30.5334283 19.5339175,30.3831518 19.5007509,30.2111066 C19.4696596,30.0390596 19.4541154,29.8535518 19.4541154,29.6545549 L19.4541154,28.8119605 C19.4541154,28.5984651 19.4727783,28.4046445 19.5100824,28.230528 C19.5494684,28.0564141 19.6085407,27.9082118 19.6873109,27.7859038 C19.7660763,27.6636062 19.8655726,27.5692929 19.9857819,27.5029681 C20.1060068,27.4345658 20.2490401,27.400365 20.4148478,27.400365 C20.5537246,27.400365 20.6729034,27.4210777 20.7724019,27.4625517 C20.8718982,27.5019318 20.9548113,27.5641188 21.0211361,27.6491013 C21.0874638,27.7320141 21.1382496,27.8377275 21.1734864,27.9662393 C21.2087254,28.0947567 21.2325625,28.2481401 21.2450005,28.4263995 L21.8202192,28.4263995 C21.8098118,28.1818079 21.7714825,27.9652033 21.7051529,27.7765635 C21.6388229,27.5879351 21.5465835,27.4293661 21.4284303,27.3008454 C21.3102782,27.1723229 21.1662085,27.0749075 20.9962578,27.0085872 C20.8283626,26.9422546 20.6345616,26.9090909 20.4148267,26.9090909 L20.4148493,26.9091479 Z M9.65079244,26.9713323 L8.19256436,31.4983148 L8.77710309,31.4983148 L9.12844335,30.3168078 L10.6581825,30.3168078 L11.0157373,31.4983148 L11.6002761,31.4983148 L10.1389404,26.9713323 L9.65079244,26.9713323 Z M12.2158155,26.9713323 L12.2158155,31.4983148 L12.7847952,31.4983148 L12.7847952,29.7260545 L13.6584846,29.7260545 C13.8761318,29.7260545 14.0689075,29.6959992 14.2368095,29.6358871 C14.4047073,29.5737027 14.5456616,29.4845728 14.6596608,29.368486 C14.7757376,29.2524066 14.8627959,29.1093944 14.9208241,28.9394208 C14.9809343,28.7673763 15.0109915,28.5725449 15.0109915,28.3548821 C15.0109915,28.1538187 14.9809362,27.9693399 14.9208241,27.801438 C14.8627833,27.6314644 14.7767611,27.4853353 14.6627678,27.363028 C14.5487619,27.2386602 14.406783,27.1422731 14.2368095,27.0738767 C14.068912,27.0054754 13.8761477,26.9712735 13.6584846,26.9712735 L12.2158155,26.9713323 Z M15.4462805,26.9713323 L15.4462805,27.4625868 L16.6340009,27.4625868 L16.6340009,31.4983148 L17.2029799,31.4983148 L17.2029799,27.4625868 L18.3938087,27.4625868 L18.3938087,26.9713323 L15.4462805,26.9713323 Z M22.5881867,26.9713323 L22.5881867,31.4983148 L23.1571672,31.4983148 L23.1571672,29.4058096 L24.9791642,29.4058096 L24.9791642,31.4983148 L25.5512505,31.4983148 L25.5512505,26.9713323 L24.9791642,26.9713323 L24.9791642,28.9177087 L23.1571672,28.9177087 L23.1571672,26.9713323 L22.5881867,26.9713323 Z M27.7090526,26.9713323 L26.2508238,31.4983148 L26.8353621,31.4983148 L27.1867016,30.3168078 L28.7164434,30.3168078 L29.073999,31.4983148 L29.6585366,31.4983148 L28.1972005,26.9713323 L27.7090526,26.9713323 Z M12.7847482,27.4625868 L13.6584379,27.4625868 C13.7973165,27.4625868 13.9154583,27.4874436 14.0128859,27.5372082 C14.1123784,27.5869524 14.1932199,27.653282 14.2554054,27.7361951 C14.3196615,27.8191075 14.3663003,27.9154924 14.39532,28.0253457 C14.4264113,28.1331304 14.441961,28.2450635 14.441961,28.3611503 C14.441961,28.4896651 14.4264172,28.6078128 14.39532,28.7155975 C14.366297,28.8213127 14.3196615,28.913554 14.2554054,28.9923197 C14.1932199,29.0690134 14.1123806,29.1291244 14.0128859,29.1726552 C13.9154627,29.2161819 13.7973117,29.2379466 13.6584379,29.2379466 L12.7847482,29.2379466 L12.7847482,27.4625868 Z M9.89324208,27.7672968 L10.5119835,29.8255996 L9.2776324,29.8255996 L9.89324208,27.7672968 Z M27.9515041,27.7672968 L28.5702443,29.8255996 L27.335894,29.8255996 L27.9515041,27.7672968 Z M1.16905748,28.0720067 C1.02603304,28.0720067 0.902692356,28.1082781 0.799050973,28.1808285 C0.697483454,28.2533782 0.612496484,28.3518355 0.544102274,28.4761937 L0.534778212,28.1341753 L0,28.1341753 L0,31.4983403 L0.550337185,31.4983403 L0.550337185,29.0917338 C0.602157506,28.9487064 0.675742481,28.8357495 0.771090999,28.7528216 C0.868513011,28.6699107 0.991847403,28.6284549 1.14109751,28.6284549 C1.18877084,28.6284549 1.23126525,28.6305639 1.26857445,28.6346672 C1.30588364,28.6367762 1.34630382,28.641923 1.38983386,28.6502036 L1.38676284,28.1154261 C1.37847109,28.1112636 1.3649956,28.1071196 1.34633897,28.1029756 C1.32975916,28.096741 1.31109994,28.091561 1.29037166,28.0874392 C1.26964412,28.0832766 1.24787725,28.0801612 1.22507733,28.0780892 C1.20434979,28.0739267 1.18569723,28.0718768 1.16911039,28.0718768 L1.16905748,28.0720067 Z M3.01904229,28.0720067 C2.85943507,28.0720067 2.70501086,28.0999863 2.55577518,28.1559558 C2.40653211,28.2119231 2.27387403,28.3041603 2.15780463,28.4326784 C2.0438017,28.5591183 1.95156009,28.7249352 1.88108277,28.9301467 C1.81060767,29.133281 1.77536974,29.3830574 1.77536974,29.6794801 L1.77536974,30.0588084 C1.77536974,30.3158288 1.80542504,30.5386705 1.86553786,30.7272863 C1.92564882,30.9159028 2.01167106,31.0724124 2.12359347,31.1967913 C2.23759899,31.3190852 2.37543452,31.410289 2.53712262,31.4704062 C2.69880185,31.5305198 2.88017741,31.5605743 3.08124562,31.5605743 C3.22634392,31.5605743 3.3558962,31.5460517 3.4698947,31.5170476 C3.58597186,31.4880246 3.68857724,31.4507147 3.77771193,31.4051134 C3.86684404,31.3574341 3.94353815,31.3035455 4.00779425,31.2434349 C4.07205035,31.1833228 4.12698054,31.1211383 4.17258223,31.0568804 L3.88653853,30.7086467 C3.84093536,30.7646081 3.79222602,30.8164336 3.74040496,30.864108 C3.68858464,30.9097056 3.6315828,30.950131 3.56939797,30.9853667 C3.50721351,31.01853 3.43880931,31.0444442 3.36418944,31.063099 C3.2895692,31.0817397 3.20561786,31.0910823 3.11234765,31.0910823 C2.85739895,31.0910823 2.6615093,31.0092052 2.52470127,30.8454551 C2.38996784,30.6817035 2.32260187,30.4194975 2.32260187,30.0588125 L2.32260187,29.9810802 L4.2005744,29.9810802 L4.2005744,29.6608357 C4.2005744,29.403815 4.17880716,29.1768299 4.13528007,28.9799039 C4.09175335,28.7829849 4.02231314,28.6171709 3.92696167,28.4824338 C3.83161352,28.3477007 3.70931513,28.2461284 3.56006281,28.1777249 C3.41081974,28.1072465 3.23049609,28.0720067 3.0190471,28.0720067 L3.01904229,28.0720067 Z M3.01904229,28.5446086 C3.13926459,28.5446086 3.23876083,28.566367 3.31753805,28.6099137 C3.39630306,28.6534404 3.45848826,28.7145874 3.50409217,28.7933524 C3.55176587,28.8721218 3.58596742,28.9664395 3.60669533,29.0762895 C3.62949488,29.1840738 3.64400489,29.3032609 3.65022241,29.433844 L3.65022241,29.5084642 L2.32569398,29.5084642 C2.33398573,29.3198359 2.35678528,29.1633385 2.39409744,29.0389589 C2.43140701,28.9145807 2.48012042,28.8161294 2.54023138,28.7435948 C2.60241584,28.6689746 2.67392695,28.6171554 2.75476879,28.5881353 C2.83560803,28.5591123 2.92370191,28.5446086 3.01906227,28.5446086 L3.01904229,28.5446086 Z" id="path3651" fill="#FFFFFF"></path>
                    </g>
                </g>
            </g>
        </g>
    </g>
</svg>