<?xml version="1.0" encoding="UTF-8"?>
<svg width="258px" height="119px" viewBox="0 0 258 119" version="1.1" xmlns="http://www.w3.org/2000/svg" xmlns:xlink="http://www.w3.org/1999/xlink">
    <!-- Generator: sketchtool 58 (101010) - https://sketch.com -->
    <title>1C01C55A-EA46-4735-AAF0-7B6420B59328</title>
    <desc>Created with sketchtool.</desc>
    <g id="Login" stroke="none" stroke-width="1" fill="none" fill-rule="evenodd">
        <g id="CREATE-QUESTION-Copy-39" transform="translate(-51.000000, -100.000000)" fill="#464646">
            <g id="Group-4" transform="translate(51.000000, 100.000000)">
                <g id="Group-2">
                    <g id="Group">
                        <path d="M76.3478261,59.1765922 C76.3478261,65.8984997 70.8958206,71.3478261 64.173913,71.3478261 C57.4466473,71.3478261 52,65.8984997 52,59.1765922 C52,52.4466473 57.4466473,47 64.173913,47 C70.8958206,47 76.3478261,52.4466473 76.3478261,59.1765922" id="Fill-17"></path>
                        <path d="M63.9143973,-3.19744231e-14 C29.4066876,-3.19744231e-14 1.29150078,26.86259 -8.02913291e-13,60.4814234 L0.00812264643,60.4814234 C0.00812264643,61.7938064 1.07760443,62.8479721 2.39888825,62.8825785 L2.39888825,62.8985507 L27.0023843,62.8985507 L27.0023843,62.8772544 C27.0484126,62.8799165 27.0809032,62.8985507 27.124224,62.8985507 C28.486121,62.8985507 29.5880934,61.8151027 29.5880934,60.4814234 L29.5935085,60.4814234 C30.8579338,42.9093338 45.7196692,29.0321481 63.9143973,29.0321481 C82.1064177,29.0321481 96.9708607,42.9093338 98.2379935,60.4814234 C98.2379935,61.8151027 99.3426735,62.8985507 100.701863,62.8985507 C100.745184,62.8985507 100.780382,62.8799165 100.820995,62.8772544 L100.820995,62.8985507 L125.429906,62.8985507 L125.429906,62.8825785 C126.753898,62.8479721 127.817964,61.7938064 127.817964,60.4814234 L127.826087,60.4814234 C126.531879,26.86259 98.4248144,-3.19744231e-14 63.9143973,-3.19744231e-14" id="Fill-19"></path>
                        <path d="M192.724638,36.2252169 C192.724638,34.8903512 191.64018,33.8006106 190.302593,33.8006106 L190.302593,33.7819598 C173.518811,32.5936363 160.132285,19.2050135 158.943911,2.42194191 L158.941247,2.42194191 C158.941247,1.08707624 157.859454,-3.19744231e-14 156.519202,-3.19744231e-14 C156.47657,-3.19744231e-14 156.444596,0.0213152203 156.396635,0.0239796228 L156.396635,-3.19744231e-14 L132.184183,-3.19744231e-14 L132.184183,0.0159864152 C130.8839,0.0532880508 129.834081,1.10839146 129.834081,2.42194191 L129.826087,2.42194191 C131.067751,35.266032 157.459776,61.6542747 190.302593,62.8985507 L190.302593,62.8825643 C191.613535,62.8825643 192.666018,61.8381185 192.711315,60.5352257 L192.724638,60.5352257 L192.724638,36.3211354 L192.703322,36.3211354 C192.703322,36.2864982 192.724638,36.2598541 192.724638,36.2252169" id="Fill-21"></path>
                        <path d="M257.623188,36.2252169 C257.623188,34.8903512 256.541349,33.8006106 255.203706,33.8006106 L255.203706,33.7819598 C238.419212,32.5936363 225.037449,19.2050135 223.843696,2.42194191 C223.843696,1.08707624 222.759192,-3.19744231e-14 221.424213,-3.19744231e-14 C221.37625,-3.19744231e-14 221.34161,0.0213152203 221.298976,0.0239796228 L221.298976,-3.19744231e-14 L197.085498,-3.19744231e-14 L197.085498,0.0159864152 C195.782495,0.0532880508 194.732632,1.10839146 194.732632,2.42194191 L194.724638,2.42194191 C195.966354,35.266032 222.362162,61.6542747 255.203706,62.8985507 L255.203706,62.8825643 C256.517368,62.8825643 257.569896,61.8381185 257.609865,60.5352257 L257.623188,60.5352257 L257.623188,36.3211354 L257.609865,36.3211354 C257.609865,36.2864982 257.623188,36.2598541 257.623188,36.2252169" id="Fill-23"></path>
                    </g>
                    <path d="M8.10787319,117.712446 L5.90839694,117.712446 L0,88.3875536 L2.02696829,88.3875536 C4.52833342,101.047639 6.72780967,111.942203 7.07282554,115.042632 L7.11595252,115.042632 C7.41784142,111.985265 11.0836352,95.7510729 12.5930796,88.3875536 L14.6631749,88.3875536 C16.1726194,95.66495 19.7952861,112.286695 20.054048,114.999571 L20.140302,114.999571 C20.7440798,110.521173 24.1942385,95.7510729 25.6605562,88.3875536 L27.6443975,88.3875536 L21.1753496,117.712446 L18.8896194,117.712446 C17.4664289,110.693419 14.1025241,94.7175965 13.5850003,91.1434907 L13.5418733,91.1434907 C12.9812225,95.2343348 9.66044465,110.521173 8.10787319,117.712446 Z M46.2369198,101.176824 L46.2369198,102.985408 L36.1883324,102.985408 L36.1883324,115.946924 L47.2719674,115.946924 L46.9700786,117.712446 L34.290745,117.712446 L34.290745,88.3875536 L46.7544437,88.3875536 L46.7544437,90.1961373 L36.1883324,90.1961373 L36.1883324,101.176824 L46.2369198,101.176824 Z M69.1038058,117.712446 L69.1038058,90.1961373 L62.3759961,90.1961373 L62.3759961,88.3875536 L77.7723297,88.3875536 L77.7723297,90.1961373 L71.04452,90.1961373 L71.04452,117.712446 L69.1038058,117.712446 Z M84.1599154,117.712446 L84.1599154,88.3875536 L86.0575026,88.3875536 L86.0575026,101.262947 L97.1411379,101.262947 L97.1411379,88.3875536 L99.0818522,88.3875536 L99.0818522,117.712446 L97.1411379,117.712446 L97.1411379,103.071531 L86.0575026,103.071531 L86.0575026,117.712446 L84.1599154,117.712446 Z M120.391375,101.176824 L120.391375,102.985408 L110.342787,102.985408 L110.342787,115.946924 L121.426422,115.946924 L121.124533,117.712446 L108.4452,117.712446 L108.4452,88.3875536 L120.908898,88.3875536 L120.908898,90.1961373 L110.342787,90.1961373 L110.342787,101.176824 L120.391375,101.176824 Z M139.937483,117.712446 L139.937483,88.3875536 L146.708419,88.3875536 C151.150499,88.3875536 154.040007,91.2726752 154.040007,96.2247495 C154.040007,101.133763 151.452388,104.578684 146.190895,104.578684 L141.83507,104.578684 L141.83507,117.712446 L139.937483,117.712446 Z M141.83507,90.1530758 L141.83507,102.7701 L146.018388,102.7701 C149.899816,102.7701 152.056165,100.660086 152.056165,96.2247495 C152.056165,92.7798284 150.244832,90.1530758 146.449657,90.1530758 L141.83507,90.1530758 Z M173.322561,101.176824 L173.322561,102.985408 L163.273973,102.985408 L163.273973,115.946924 L174.357609,115.946924 L174.05572,117.712446 L161.376386,117.712446 L161.376386,88.3875536 L173.840085,88.3875536 L173.840085,90.1961373 L163.273973,90.1961373 L163.273973,101.176824 L173.322561,101.176824 Z M188.421798,88 C194.287067,88 196.443417,92.9951359 196.443417,102.7701 C196.443417,112.329757 194.416448,118.1 188.335543,118.1 C182.427147,118.1 180.313924,112.588126 180.313924,102.899285 C180.313924,93.253505 182.815289,88 188.421798,88 Z M188.378671,89.7655222 C184.497242,89.7655222 182.340893,93.8994278 182.340893,102.813162 C182.340893,112.071388 184.410988,116.334478 188.421798,116.334478 C192.475734,116.334478 194.459575,112.071388 194.459575,102.899285 C194.459575,93.253505 192.303226,89.7655222 188.378671,89.7655222 Z M204.599209,117.712446 L204.599209,88.3875536 L211.370145,88.3875536 C215.812225,88.3875536 218.701732,91.2726752 218.701732,96.2247495 C218.701732,101.133763 216.114113,104.578684 210.852622,104.578684 L206.496796,104.578684 L206.496796,117.712446 L204.599209,117.712446 Z M206.496796,90.1530758 L206.496796,102.7701 L210.680114,102.7701 C214.561542,102.7701 216.717891,100.660086 216.717891,96.2247495 C216.717891,92.7798284 214.906558,90.1530758 211.111384,90.1530758 L206.496796,90.1530758 Z M226.038113,117.712446 L226.038113,88.3875536 L227.935699,88.3875536 L227.935699,115.946924 L238.717445,115.946924 L238.286177,117.712446 L226.038113,117.712446 Z M256.964951,101.176824 L256.964951,102.985408 L246.916365,102.985408 L246.916365,115.946924 L258,115.946924 L257.698112,117.712446 L245.018777,117.712446 L245.018777,88.3875536 L257.482476,88.3875536 L257.482476,90.1961373 L246.916365,90.1961373 L246.916365,101.176824 L256.964951,101.176824 Z" id="WETHEPEOPLE" fill-opacity="0.5" fill-rule="nonzero"></path>
                </g>
            </g>
        </g>
    </g>
</svg>